<svg xmlns="http://www.w3.org/2000/svg" version="1.1" xmlns:xlink="http://www.w3.org/1999/xlink" xmlns:svgjs="http://svgjs.dev/svgjs" width="1000" height="179" viewBox="0 0 1000 179"><g transform="matrix(1,0,0,1,-0.6060606060606233,0.4737422671428959)"><svg xmlns="http://www.w3.org/2000/svg" version="1.1" xmlns:xlink="http://www.w3.org/1999/xlink" xmlns:svgjs="http://svgjs.com/svgjs" viewBox="0 0 396 71" data-background-color="#ffffff" preserveAspectRatio="xMidYMid meet" height="179" width="1000"><defs></defs><g id="tight-bounds" transform="matrix(1,0,0,1,0.2400000000000091,-0.18790894395053215)"><svg viewBox="0 0 395.52 71.37581788790105" height="71.37581788790105" width="395.52"><g><svg viewBox="0 0 492.3895736469193 88.85696940363005" height="71.37581788790105" width="395.52"><g transform="matrix(1,0,0,1,96.86957364691933,27.458093295468565)"><svg viewBox="0 0 395.52 33.940782812692916" height="33.940782812692916" width="395.52"><g><svg viewBox="0 0 395.52 33.940782812692916" height="33.940782812692916" width="395.52"><g><svg viewBox="0 0 395.52 33.940782812692916" height="33.940782812692916" width="395.52"><g transform="matrix(1,0,0,1,0,0)"><svg width="395.52" viewBox="3.65 -34.35 404.92 34.75" height="33.940782812692916" data-palette-color="#3c2c32"><path d="M13.6-11.95L13.6-11.95 8.8-11.95 8.8 0 3.65 0 3.65-33.7 13.3-33.7Q19.1-33.7 22.5-30.63 25.9-27.55 25.9-22.75 25.9-17.95 22.48-14.95 19.05-11.95 13.6-11.95ZM13.1-29.45L13.1-29.45 8.8-29.45 8.8-16.2 13.2-16.2Q16.85-16.2 18.78-18 20.7-19.8 20.7-22.75L20.7-22.75Q20.7-25.85 18.75-27.65 16.8-29.45 13.1-29.45ZM40.7-29.4L40.7-29.4 36.3-29.4 36.3-17.1 40.95-17.1Q44.15-17.1 45.8-18.78 47.45-20.45 47.45-23.25L47.45-23.25Q47.45-29.4 40.7-29.4ZM36.3-12.8L36.3 0 31.15 0 31.15-33.7 40.55-33.7Q46.35-33.7 49.5-30.88 52.65-28.05 52.65-23.2L52.65-23.2Q52.6-19.65 50.85-17.18 49.1-14.7 46-13.6L46-13.6 54.8 0 48.65 0 40.75-12.8 36.3-12.8ZM85-29.63Q89.15-24.9 89.15-17 89.15-9.1 84.97-4.35 80.8 0.4 73.7 0.4L73.7 0.4Q66.65 0.4 62.42-4.35 58.2-9.1 58.2-17L58.2-17Q58.2-24.85 62.4-29.6 66.59-34.35 73.65-34.35L73.65-34.35Q80.84-34.35 85-29.63ZM66.27-26.18Q63.6-22.8 63.6-17 63.6-11.2 66.34-7.8 69.09-4.4 73.7-4.4L73.7-4.4Q78.45-4.4 81.09-7.75 83.75-11.1 83.75-17L83.75-17Q83.75-22.85 81.07-26.2 78.4-29.55 73.65-29.55L73.65-29.55Q68.95-29.55 66.27-26.18ZM106.29-33.7L106.29-9.1Q106.29-4.45 104.02-2.23 101.74 0 97.89 0L97.89 0Q94.79 0 92.94-1.05L92.94-1.05 92.94-5.8Q94.99-4.55 97.04-4.55L97.04-4.55Q101.14-4.55 101.14-8.9L101.14-8.9 101.14-33.7 106.29-33.7ZM132.94-4.3L132.94 0 113.49 0 113.49-33.7 132.69-33.7 132.69-29.4 118.64-29.4 118.64-19 131.09-19 131.09-14.7 118.64-14.7 118.64-4.3 132.94-4.3ZM163.59-6.85L163.59-1.65Q160.49 0.4 154.99 0.4L154.99 0.4Q147.44 0.4 142.64-4.3 137.84-9 137.84-16.9L137.84-16.9Q137.84-24.55 142.66-29.35 147.49-34.15 154.89-34.15L154.89-34.15Q160.29-34.15 163.54-32.3L163.54-32.3 163.54-27.25Q161.34-28.45 159.56-28.93 157.79-29.4 155.04-29.4L155.04-29.4Q149.99-29.4 146.61-25.98 143.24-22.55 143.24-16.9L143.24-16.9Q143.24-11.15 146.59-7.75 149.94-4.35 155.44-4.35L155.44-4.35Q160.29-4.35 163.59-6.85L163.59-6.85ZM189.69-33.7L189.69-29.4 180.84-29.4 180.84 0 175.69 0 175.69-29.4 166.89-29.4 166.89-33.7 189.69-33.7ZM216.68-11.95L216.68-11.95 211.88-11.95 211.88 0 206.73 0 206.73-33.7 216.38-33.7Q222.18-33.7 225.58-30.63 228.98-27.55 228.98-22.75 228.98-17.95 225.56-14.95 222.13-11.95 216.68-11.95ZM216.18-29.45L216.18-29.45 211.88-29.45 211.88-16.2 216.28-16.2Q219.93-16.2 221.86-18 223.78-19.8 223.78-22.75L223.78-22.75Q223.78-25.85 221.83-27.65 219.88-29.45 216.18-29.45ZM253.18-4.55L253.18 0 234.23 0 234.23-33.7 239.38-33.7 239.38-4.55 253.18-4.55ZM266.23-14.25L266.23-14.25 265.68-12.55 276.48-12.55 275.93-14.25Q274.03-20.15 272.83-24.03 271.63-27.9 271.38-28.85L271.38-28.85 271.13-29.8Q270.58-27.45 266.23-14.25ZM264.28-8.25L261.58 0 256.13 0 267.78-33.7 274.53-33.7 286.03 0 280.53 0 277.88-8.25 264.28-8.25ZM296.37-14.1L296.37 0 291.22 0 291.22-33.7 297.32-33.7 305.62-19.6Q307.92-15.65 309.8-12.3 311.67-8.95 312.37-7.6L312.37-7.6 313.07-6.2Q312.77-10.75 312.77-19.55L312.77-19.55 312.77-33.7 317.92-33.7 317.92 0 311.82 0 303.47-14.05Q301.22-17.85 299.35-21.23 297.47-24.6 296.72-26.1L296.72-26.1 295.97-27.55Q296.37-22.55 296.37-14.1L296.37-14.1ZM330.37-14.1L330.37 0 325.22 0 325.22-33.7 331.32-33.7 339.62-19.6Q341.92-15.65 343.8-12.3 345.67-8.95 346.37-7.6L346.37-7.6 347.07-6.2Q346.77-10.75 346.77-19.55L346.77-19.55 346.77-33.7 351.92-33.7 351.92 0 345.82 0 337.47-14.05Q335.22-17.85 333.35-21.23 331.47-24.6 330.72-26.1L330.72-26.1 329.97-27.55Q330.37-22.55 330.37-14.1L330.37-14.1ZM378.67-4.3L378.67 0 359.22 0 359.22-33.7 378.42-33.7 378.42-29.4 364.37-29.4 364.37-19 376.82-19 376.82-14.7 364.37-14.7 364.37-4.3 378.67-4.3ZM394.47-29.4L394.47-29.4 390.07-29.4 390.07-17.1 394.72-17.1Q397.92-17.1 399.57-18.78 401.22-20.45 401.22-23.25L401.22-23.25Q401.22-29.4 394.47-29.4ZM390.07-12.8L390.07 0 384.92 0 384.92-33.7 394.32-33.7Q400.12-33.7 403.27-30.88 406.42-28.05 406.42-23.2L406.42-23.2Q406.37-19.65 404.62-17.18 402.87-14.7 399.77-13.6L399.77-13.6 408.57 0 402.42 0 394.52-12.8 390.07-12.8Z" opacity="1" transform="matrix(1,0,0,1,0,0)" fill="#3c2c32" class="undefined-text-0" data-fill-palette-color="primary" id="text-0"></path></svg></g></svg></g></svg></g></svg></g><g><svg viewBox="0 0 88.85696940363005 88.85696940363005" height="88.85696940363005" width="88.85696940363005"><g><svg xmlns="http://www.w3.org/2000/svg" xmlns:xlink="http://www.w3.org/1999/xlink" version="1.1" x="0" y="0" viewBox="0 0 512 512" enable-background="new 0 0 512 512" xml:space="preserve" height="88.85696940363005" width="88.85696940363005" class="icon-icon-0" fill="#0074d9" data-fill-palette-color="accent" id="icon-0"><path d="M160 256H96v-64h64V256zM288 192h-64v64h64V192zM416 192h-64v64h64V192zM160 288H96v64h64V288zM288 288h-64v64h64V288zM416 288h-64v64h64V288zM160 384H96v64h64V384zM288 384h-64v64h64V384zM128 96c17.672 0 32-14.313 32-32V32c0-17.688-14.328-32-32-32S96 14.313 96 32v32C96 81.688 110.328 96 128 96zM512 64v448H0V64h80c0 26.469 21.531 48 48 48s48-21.531 48-48h160c0 26.469 21.531 48 48 48s48-21.531 48-48H512zM480 160H32v320h448V160zM384 96c17.688 0 32-14.313 32-32V32c0-17.688-14.313-32-32-32s-32 14.313-32 32v32C352 81.688 366.313 96 384 96z" fill="#0074d9" data-fill-palette-color="accent"></path></svg></g></svg></g></svg></g></svg><rect width="395.52" height="71.37581788790105" fill="transparent" stroke="transparent"></rect></g></svg></g></svg>